# xmcd CD database file
#
# Track frame offsets:
#	150
#	20401
#	46109
#	80878
#	103534
#	119617
#	150164
#	184934
#	215118
#
# Disc length: 3314 seconds
#
# Revision: 0
# Processed by: cddbd v1.5.1PL0 Copyright (c) Steve Scherf et al.
# Submitted via: CDex 1.51
#
DISCID=740cf009
DTITLE=Andreas Jaeger - Chages
DYEAR=2001
DGENRE=Jazz
TTITLE0=Something Happens
TTITLE1=Changes
TTITLE2=Spaces
TTITLE3=Close-Cut
TTITLE4=Second Day
TTITLE5=U-Turn
TTITLE6=Strange Days
TTITLE7=White Lie
TTITLE8=Beautiful Love
EXTD=YEAR: 2001
EXTT0=
EXTT1=
EXTT2=
EXTT3=
EXTT4=
EXTT5=
EXTT6=
EXTT7=
EXTT8=
PLAYORDER=
